<?xml version="1.0" standalone="no"?>
<!DOCTYPE svg PUBLIC "-//W3C//DTD SVG 1.1//EN" "http://www.w3.org/Graphics/SVG/1.1/DTD/svg11.dtd" >
<!--
2013-9-30: Created.
-->
<svg>
<metadata>
Created by iconfont
</metadata>
<defs>

<font id="iconfont" horiz-adv-x="1024" >
  <font-face
    font-family="iconfont"
    font-weight="500"
    font-stretch="normal"
    units-per-em="1024"
    ascent="896"
    descent="-128"
  />
    <missing-glyph />
    
    <glyph glyph-name="music" unicode="&#58922;" d="M96.448 128a256 256 0 1 1 512 0 256 256 0 0 1-512 0zM494.656 896v-768h113.792V668.448l312.896-85.344V782.208z"  horiz-adv-x="1024" />

    
    <glyph glyph-name="dance" unicode="&#58884;" d="M955.7 348.4c-68.2 178.8-241.1 305.8-443.8 305.8C309 654.2 136 527 67.9 348l443.2-212.3-95-45.5c21.3-30 56.2-49.6 95.8-49.6 39.6 0 74.5 19.6 95.8 49.6L512.2 136l443.5 212.4zM511.6 135.5l208.1 99.7c-31.9 83.7-112.9 143.2-207.8 143.2-95 0-176-59.6-207.9-143.4l207.6-99.5zM406.14 111.46600000000001L945.894 369.35l13.968-29.234-539.756-257.884zM666.5 316.5l-18.6 15.6-112.4-135.2 40.2 172.6-23.6 5.5L512 203.10000000000002l-40.3 172-23.7-5.6 40.5-172.6-112.6 135.2-18.7-15.6 111.4-133.7L78.1 369.4l-13.9-29.3 539.7-257.8 14 29.2-87.2 41.7z"  horiz-adv-x="1024" />

    
    <glyph glyph-name="recommend" unicode="&#58894;" d="M839.4 18.5c0-33.7-28.9-61.1-64.7-61.1h-646c-35.8 0-64.7 27.4-64.7 61.1 0 122.1 124.9 236.3 252.5 281.2-73.7 43.1-123.3 119.6-123.3 207.5v61.1c0 135 115.8 244.5 258.5 244.5s258.5-109.5 258.5-244.5v-61.1c0-87.9-49.6-164.4-123.3-207.5 127.6-45 252.5-159.1 252.5-281.2zM904 195.20000000000005h-82.6l8 18.6c16 34.6 15.6 63.7 2.7 85.2-13.8 23-39 26.6-52.4 25.8-5.2-0.3-9.7-3.3-12.4-7.8l-71.4-122h-65.7c-10.4 0-18.8-8.4-18.8-18.8v-202.1c0-10.4 8.4-18.8 18.8-18.8h70.5v0.3c0.3 0 0.5-0.2 0.8-0.2H880c26.6 0 50.6 18.6 53.3 45.3l26.6 141.2c0 29.3-23.9 53.3-55.9 53.3zM661.4-12.200000000000045c-11.1 0-20.1 9-20.1 20.1V142.29999999999995c0 11.1 9 20.1 20.1 20.1 11.1 0 20.1-9 20.1-20.1v-134.5c0-11-9-20-20.1-20z"  horiz-adv-x="1024" />

    
    <glyph glyph-name="zhibo" unicode="&#58885;" d="M378.6 582.7c0-58.2-47.2-105.4-105.4-105.4s-105.4 47.2-105.4 105.4S215 688.1 273.2 688.1s105.4-47.2 105.4-105.4M584.5 477.3c90.6 0 164 73.4 164 164s-73.4 164-164 164-164-73.4-164-164 73.4-164 164-164zM873.8 368.5l-72.6-41.9v55.3c0 45.2-37 82.1-82.1 82.1H148.3c-45.2 0-82.1-37-82.1-82.1v-337.1c0-45.2 37-82.1 82.1-82.1H719c45.2 0 82.1 37 82.1 82.1V72l72.6-41.9c38.9-22.5 87.6 5.6 87.6 50.6V318c0 44.9-48.6 73-87.5 50.5zM415.8 313.20000000000005l141.7-81.8c18.7-10.8 18.7-37.9 0-48.7l-141.7-81.8c-18.7-10.8-42.2 2.7-42.2 24.4V288.9c0.1 21.6 23.5 35.1 42.2 24.3"  horiz-adv-x="1024" />

    
    <glyph glyph-name="play" unicode="&#58944;" d="M846.866209-114.157601 176.78996-114.157601c-44.236504 0-85.972047 14.297634-117.520577 40.257889-32.561603 26.795273-50.494021 62.724577-50.494021 101.171214L8.775362 578.691303c0 38.44766 17.932418 74.377988 50.494021 101.173261 31.54853 25.962302 73.285097 40.259936 117.520577 40.259936l670.076248 0c44.236504 0 85.97307-14.297634 117.5216-40.259936 32.56058-26.795273 50.494021-62.7256 50.494021-101.173261l0-551.419801c0-38.446637-17.932418-74.376964-50.494021-101.171214C932.839279-99.859967 891.102712-114.157601 846.866209-114.157601zM176.78996 684.308783c-72.894194 0-132.198881-47.3801-132.198881-105.617479l0-551.419801c0-58.235332 59.304687-105.613386 132.198881-105.613386l670.076248 0c72.894194 0 132.198881 47.378054 132.198881 105.613386L979.06509 578.691303c0 58.237379-59.304687 105.617479-132.198881 105.617479L176.78996 684.308783zM400.713916 72.511869c-2.815115 0-5.640464 0.662079-8.233522 2.00568-5.942339 3.077082-9.673313 9.210779-9.673313 15.902178L382.807081 528.835825c0 6.691399 3.730974 12.825097 9.673313 15.902178 5.942339 3.076058 13.103436 2.584871 18.568914-1.277086l310.227554-219.207537c4.750187-3.356444 7.573489-8.809643 7.573489-14.625092s-2.824325-11.268648-7.573489-14.625092L411.049309 75.794635C407.969157 73.618063 404.349723 72.511869 400.713916 72.511869zM418.622798 494.255239l0-369.253902 261.286911 184.626951L418.622798 494.255239z"  horiz-adv-x="1024" />

    
    <glyph glyph-name="list" unicode="&#58898;" d="M922.221714 896 101.778286 896C65.828571 896 36.571429 866.706286 36.571429 830.646857l0-892.050286c0-36.022857 29.257143-65.316571 65.206857-65.316571l820.443429 0c35.949714 0 65.206857 29.293714 65.206857 65.316571L987.428571 830.646857C987.428571 866.706286 958.171429 896 922.221714 896zM943.945143 552.301714l0-613.668571c0-12.032-9.764571-21.76-21.723429-21.76L101.778286-83.126857c-11.995429 0-21.723429 9.764571-21.723429 21.76L80.054857 552.301714 80.054857 830.646857c0 11.995429 9.764571 21.76 21.723429 21.76l820.443429 0c11.995429 0 21.723429-9.764571 21.723429-21.76L943.945143 552.301714zM841.179429 354.816 387.547429 354.816c-16.64 0-30.098286 13.494857-30.098286 30.208 0 16.676571 13.458286 30.208 30.098286 30.208l453.632 0c16.64 0 30.098286-13.531429 30.098286-30.208C871.241143 368.310857 857.819429 354.816 841.179429 354.816zM387.547429 596.333714c-16.64 0-30.098286 13.531429-30.098286 30.171429 0 16.676571 13.458286 30.208 30.098286 30.208l453.632 0c16.64 0 30.098286-13.531429 30.098286-30.208 0-16.676571-13.458286-30.171429-30.098286-30.171429L387.547429 596.333714zM151.771429 143.506286a1.645 1.651 0 1 0 120.32 0 1.645 1.651 0 1 0-120.32 0ZM151.771429 385.024a1.645 1.651 0 1 0 120.32 0 1.645 1.651 0 1 0-120.32 0ZM151.771429 626.541714a1.645 1.651 0 1 0 120.32 0 1.645 1.651 0 1 0-120.32 0ZM387.547429 173.677714l453.632 0c16.64 0 30.098286-13.494857 30.098286-30.208 0-16.676571-13.458286-30.208-30.098286-30.208L387.547429 113.261714c-16.64 0-30.098286 13.494857-30.098286 30.208C357.449143 160.182857 370.907429 173.677714 387.547429 173.677714z"  horiz-adv-x="1024" />

    
    <glyph glyph-name="down" unicode="&#58938;" d="M511.665379 126.403131c-5.116531 0-10.232039 1.907443-14.19428 5.722328L61.009516 552.30931c-8.143471 7.839549-8.389064 20.795629-0.549516 28.938076 7.839549 8.142447 20.794605 8.389064 28.938076 0.549516l422.290839-406.542157L935.462524 581.821461c8.154727 7.826246 21.11183 7.556093 28.937053-0.599657 7.824199-8.156774 7.556093-21.11183-0.600681-28.937053L525.833053 132.101923a20.402679 20.402679 0 0 0-14.167674-5.698792z"  horiz-adv-x="1024" />

    
    <glyph glyph-name="search" unicode="&#59192;" d="M914.912-60.736l-232.416 232.448c46.72 56.192 74.848 128.32 74.848 207.072 0 179.04-145.12 324.128-324.128 324.128-179.008 0-324.128-145.12-324.128-324.128 0-179.008 145.152-324.128 324.128-324.128 78.784 0 150.912 28.128 207.072 74.848l232.416-232.448 42.208 42.208zM143.2 378.784c0 159.904 130.08 290.016 290.016 290.016 159.904 0 290.016-130.112 290.016-290.016s-130.112-290.016-290.016-290.016c-159.936 0-290.016 130.112-290.016 290.016z"  horiz-adv-x="1024" />

    
    <glyph glyph-name="ranking" unicode="&#58897;" d="M0.768 574.528v-637.504c0-35.264 28.16-64.128 62.72-64.128h205.248V639.168H64.832c-35.392 0-64.064-29.056-64.064-64.64z m151.744-26.88a21.504 21.504 0 0 1-16.192 6.144 19.712 19.712 0 0 1-11.456-3.2 22.4 22.4 0 0 1-7.424-8.32 40.704 40.704 0 0 1-3.968-11.392c-0.832-4.032-1.088-8.32-1.088-12.352H83.2a80.512 80.512 0 0 0 2.944 24.512 61.312 61.312 0 0 0 10.368 19.904 47.168 47.168 0 0 0 17.28 13.248 55.872 55.872 0 0 0 23.936 4.8c6.912 0 13.504-1.088 19.648-3.2 6.4-2.176 11.712-5.376 16.512-9.408a42.048 42.048 0 0 0 11.136-15.104 44.992 44.992 0 0 0 4.288-20.224 49.152 49.152 0 0 0-13.312-34.752c-3.968-4.288-8.512-8.32-13.568-11.84-5.056-3.52-10.112-7.04-15.36-10.496-5.12-3.52-10.176-7.296-15.232-11.072a79.36 79.36 0 0 1-12.992-13.696h71.232v-26.944H79.68c0 8.896 1.28 16.64 3.712 23.424 2.432 6.464 5.888 12.416 10.112 17.792a86.4 86.4 0 0 0 15.168 14.272c5.824 4.288 11.968 8.896 18.368 13.44 3.2 2.432 6.912 4.864 10.624 7.296a60.992 60.992 0 0 1 10.112 8.064 39.872 39.872 0 0 1 7.68 9.984 24.832 24.832 0 0 1 3.2 12.672 21.44 21.44 0 0 1-6.144 16.384zM637.184 895.872H386.24c-34.56 0-62.72-28.8-62.72-64.384v-959.104h376.64V831.488C699.904 867.072 671.744 895.872 637.184 895.872z m-101.056-212.48H505.6v99.84h-37.76v23.488a72.96 72.96 0 0 1 15.36 1.088 37.76 37.76 0 0 1 23.424 14.528A35.072 35.072 0 0 1 512 837.184h24.192v-153.856zM958.592 436.352h-203.904v-563.968h205.184c34.56 0 62.72 28.8 62.72 64.064V371.20000000000005c0 35.84-28.672 65.152-64 65.152z m-18.368-189.568a48.448 48.448 0 0 0-12.48-15.936 52.032 52.032 0 0 0-17.856-9.664c-6.592-2.176-13.824-3.2-20.992-3.2-8.512 0-16.192 1.28-23.104 3.712a51.968 51.968 0 0 0-17.792 10.816 49.728 49.728 0 0 0-11.456 17.472 60.8 60.8 0 0 0-3.712 23.68h28.992a57.408 57.408 0 0 1 1.856-11.84c1.024-3.776 2.88-7.04 5.056-9.664a23.552 23.552 0 0 1 19.392-8.96c6.912 0 12.8 2.24 17.536 6.528a22.72 22.72 0 0 1 7.168 17.792 21.888 21.888 0 0 1-3.456 13.44 19.2 19.2 0 0 1-8.512 6.72 37.632 37.632 0 0 1-11.136 2.432c-3.968 0.256-8 0.256-11.712 0.256v22.08c3.2-0.256 6.912-0.256 10.624 0a32.64 32.64 0 0 1 10.368 2.432 22.272 22.272 0 0 1 8 5.952 16.448 16.448 0 0 1 3.2 10.496c0 6.72-2.176 11.584-6.4 15.104a23.04 23.04 0 0 1-14.912 5.376 20.992 20.992 0 0 1-17.536-7.808 29.696 29.696 0 0 1-5.568-19.648h-28.992a62.08 62.08 0 0 0 4.288 21.504 46.976 46.976 0 0 0 26.88 27.52 53.12 53.12 0 0 0 20.928 3.712 60.16 60.16 0 0 0 18.112-2.688c6.08-1.856 11.392-4.544 16.192-8.32a43.52 43.52 0 0 0 11.712-13.44c2.944-5.44 4.48-11.328 4.48-18.368 0-7.488-1.856-13.952-5.312-19.648a25.728 25.728 0 0 0-15.936-11.52v-0.64a32.64 32.64 0 0 0 19.712-12.352 35.904 35.904 0 0 0 7.168-22.592 53.696 53.696 0 0 0-4.8-20.736z"  horiz-adv-x="1024" />

    
    <glyph glyph-name="science-technology" unicode="&#58946;" d="M597.215632-98.57471299999997h403.714943s43.549425 8.945287 43.549425 114.64092 94.16092 577.677241-459.976092 577.677241-457.151264-541.425287-457.151264-541.425287-25.423448-160.77977 54.848735-157.013333 415.014253 6.12046 415.014253 6.120459zM1071.786667 183.20183899999995h72.503908v-136.297931h-72.503908zM36.016552 183.20183899999995h72.503908v-136.297931H36.016552zM305.68366 336.59074l556.254412 1.165018 0.398364-190.20464-556.254412-1.165018-0.398364 190.20464ZM1129.931034 215.68735600000002h-59.556781c-3.295632 152.069885-67.56046 258.942529-172.079081 324.384368l115.347127 238.462529a47.08046 47.08046 0 1 1-42.372414 20.48l-114.640919-236.57931a625.934713 625.934713 0 0 1-269.30023 53.200919 625.228506 625.228506 0 0 1-270.006437-54.848736l-115.817931 235.402299a47.08046 47.08046 0 1 1-42.372414-20.715402l117.701149-238.462529c-103.812414-65.441839-167.135632-173.02069-169.960459-324.61977H47.786667a47.08046 47.08046 0 0 1-47.08046-47.08046v-117.701149a47.08046 47.08046 0 0 1 47.08046-47.08046h58.615172v-57.908965a70.62069 70.62069 0 0 1 70.62069-70.62069l823.908046 1.647816a70.62069 70.62069 0 0 1 70.620689 70.62069v57.908965h59.085977a47.08046 47.08046 0 0 1 47.08046 47.08046v117.701149A47.08046 47.08046 0 0 1 1129.931034 215.68735600000002zM94.16092 48.787125999999944H47.08046v117.70115h47.08046v-117.70115z m929.83908-103.106206a23.54023 23.54023 0 0 0-23.54023-23.54023l-823.908046-1.647816a23.54023 23.54023 0 0 0-23.54023 23.540229v258.942529c0 329.563218 303.668966 365.57977 434.788046 365.815173s435.494253-34.604138 436.20046-363.931954z m105.46023 105.224827h-47.08046v117.70115h47.08046v-117.70115zM464.684138 760.172874l22.363218 19.53839 40.018391-62.381609a30.131494 30.131494 0 0 1 25.423448-13.888735h2.824828a30.131494 30.131494 0 0 1 25.188046 19.067586l20.715402 79.095172 21.186207-74.387126v-2.118621a30.366897 30.366897 0 0 1 52.494713-6.826667l30.366896 57.202759 13.182529-12.947126a30.131494 30.131494 0 0 1 21.186207-8.709886h57.673563a23.54023 23.54023 0 0 1 23.54023 23.54023 23.54023 23.54023 0 0 1-23.54023 23.54023h-50.140689l-23.54023 23.54023a30.366897 30.366897 0 0 1-45.668046-3.766437l-21.42161-40.01839L629.465747 876.697011a30.131494 30.131494 0 0 1-28.012873 19.067587 30.131494 30.131494 0 0 1-28.012874-19.067587l-26.60046-101.693793-29.660689 47.08046a30.366897 30.366897 0 0 1-20.48 13.653333 30.837701 30.837701 0 0 1-23.54023-6.826666l-32.250115-28.248276h-60.027586a23.54023 23.54023 0 0 1-23.54023-23.54023 23.54023 23.54023 0 0 1 23.54023-23.54023h66.148046a31.308506 31.308506 0 0 1 17.655172 6.591265zM776.121379 363.04919500000005H404.421149A121.232184 121.232184 0 0 1 282.482759 256.64735599999995a117.701149 117.701149 0 0 1 117.701149-129.000459h371.70023a121.232184 121.232184 0 0 1 121.938391 106.401839 117.701149 117.701149 0 0 1-117.70115 129.000459z m0-188.321839H402.302529a72.503908 72.503908 0 0 0-72.268506 56.496552 70.62069 70.62069 0 0 0 68.972874 84.744828h373.81885a72.503908 72.503908 0 0 0 72.268506-56.496552 70.62069 70.62069 0 0 0-68.502069-84.744828z"  horiz-adv-x="1179" />

    
    <glyph glyph-name="movie" unicode="&#59023;" d="M337.528022 374.59705499999995c-56.541669 0-100.899409-63.041631-100.899408-63.041631s-41.845755 63.041631-100.925409 63.041631c-57.465663 0-104.395388-47.397722-107.46537-104.785386-1.72999-32.42181 8.719949-57.093665 23.445862-79.439534 29.425828-44.647738 158.069074-152.133109 185.132915-152.133109 27.621838 0 155.121091 107.095372 184.740918 152.133109 14.755914 22.449868 25.179852 47.021724 23.439863 79.439534-3.067982 57.387664-49.995707 104.785386-107.469371 104.785386M888.296795 374.59705499999995c-56.541669 0-100.899409-63.041631-100.899409-63.041631s-41.843755 63.041631-100.925408 63.041631c-57.465663 0-104.395388-47.397722-107.465371-104.785386-1.72999-32.42181 8.719949-57.093665 23.445863-79.439534 29.425828-44.647738 158.069074-152.133109 185.132915-152.133109 27.621838 0 155.121091 107.095372 184.740918 152.133109 14.755914 22.449868 25.179852 47.021724 23.439862 79.439534-3.067982 57.387664-49.995707 104.785386-107.46937 104.785386M267.91243 666.317346c13.079923-8.291951 30.409822-4.419974 38.709773 8.661949l0.447998 0.705996c16.725902 26.399845 52.257694 33.989801 79.201536 16.921901 26.783843-16.969901 34.769796-52.563692 17.801895-79.347535-8.291951-13.087923-4.399974-30.415822 8.683949-38.703774a27.919836 27.919836 0 0 1 14.983913-4.357974 28.039836 28.039836 0 0 1 23.721861 13.039924c33.521804 52.91369 17.743896 123.235278-35.173794 156.759081-53.077689 33.619803-123.331277 18.239893-156.601083-34.277799l-0.439997-0.691996c-8.295951-13.077923-4.415974-30.409822 8.663949-38.709773zM201.474819 591.575784c0.701996-1.70999 1.569991-3.33798 2.579985-4.851972a28.531833 28.531833 0 0 1 3.47798-4.263975 29.563827 29.563827 0 0 1 4.263975-3.477979c1.541991-1.005994 3.169981-1.879989 4.851972-2.579985a28.333834 28.333834 0 0 1 10.743937-2.155988c1.823989 0 3.645979 0.193999 5.469968 0.557997a28.687832 28.687832 0 0 1 5.245969 1.597991 30.187823 30.187823 0 0 1 4.851971 2.579985 28.215835 28.215835 0 0 1 4.263975 3.477979 26.803843 26.803843 0 0 1 3.47798 4.263975c1.009994 1.513991 1.879989 3.141982 2.579985 4.851972a27.651838 27.651838 0 0 1 2.129987 10.715937c0 1.819989-0.167999 3.673978-0.531996 5.497968a29.743826 29.743826 0 0 1-1.597991 5.245969 28.499833 28.499833 0 0 1-2.579985 4.823972 26.893842 26.893842 0 0 1-3.47798 4.263975c-1.289992 1.321992-2.747984 2.467986-4.263975 3.505979a29.719826 29.719826 0 0 1-4.851971 2.579985 28.181835 28.181835 0 0 1-5.245969 1.597991 27.739837 27.739837 0 0 1-10.967936 0 28.379834 28.379834 0 0 1-10.097941-4.177976 29.739826 29.739826 0 0 1-4.263975-3.505979 26.803843 26.803843 0 0 1-3.47798-4.263975 28.359834 28.359834 0 0 1-2.579985-4.823972 29.527827 29.527827 0 0 1-1.59799-5.245969c-0.363998-1.823989-0.559997-3.677978-0.559997-5.497968a28.473833 28.473833 0 0 1 2.157987-10.715937zM596.264506 570.197909c5.12997 0 10.327939 1.407992 14.983912 4.357974 13.083923 8.287951 16.975901 25.61985 8.68395 38.703774-8.221952 12.975924-10.893936 28.373834-7.533956 43.359746 3.36398 14.985912 12.357928 27.765837 25.333851 35.985789 26.943842 17.0699 62.479634 9.479944 79.189536-16.901901l0.437998-0.691996c8.281951-13.095923 25.60785-16.9999 38.699773-8.713949 13.093923 8.279951 16.9939 25.60585 8.713949 38.699773l-0.451997 0.711996c-33.277805 52.529692-103.525393 67.917602-156.613083 34.289799-25.63385-16.237905-43.407746-41.487757-50.049707-71.095583-6.641961-29.607827-1.357992-60.027648 14.881913-85.661498a28.019836 28.019836 0 0 1 23.723861-13.043924zM769.127493 596.823753c0.363998-1.795989 0.897995-3.565979 1.597991-5.245969 0.701996-1.70999 1.569991-3.33798 2.579985-4.851972a26.555844 26.555844 0 0 1 3.47598-4.263975 27.019842 27.019842 0 0 1 4.291974-3.477979c1.513991-1.005994 3.141982-1.879989 4.823972-2.579985 1.70999-0.701996 3.44998-1.231993 5.245969-1.597991a27.959836 27.959836 0 0 1 5.497968-0.557997c1.823989 0 3.649979 0.193999 5.469968 0.557997a28.593832 28.593832 0 0 1 5.245969 1.597991c1.67999 0.701996 3.309981 1.573991 4.851972 2.579985a28.313834 28.313834 0 0 1 4.263975 3.477979c1.289992 1.289992 2.439986 2.719984 3.47798 4.263975a27.859837 27.859837 0 0 1 2.579984 4.851972 27.649838 27.649838 0 0 1 2.127988 10.715937c0 1.819989-0.167999 3.673978-0.529997 5.497968a30.083824 30.083824 0 0 1-1.597991 5.245969 28.531833 28.531833 0 0 1-6.057964 9.087947c-1.289992 1.321992-2.747984 2.467986-4.263975 3.505979a29.965824 29.965824 0 0 1-4.851972 2.579985 28.135835 28.135835 0 0 1-5.245969 1.597991 27.739837 27.739837 0 0 1-10.967936 0c-1.795989-0.363998-3.533979-0.897995-5.245969-1.597991a28.499833 28.499833 0 0 1-4.823972-2.579985c-1.541991-1.037994-3.001982-2.185987-4.291974-3.505979a26.683844 26.683844 0 0 1-3.47598-4.263975 28.359834 28.359834 0 0 1-2.579985-4.823972 29.527827 29.527827 0 0 1-1.597991-5.245969 28.167835 28.167835 0 0 1-0.531996-5.497968c-0.002-1.825989 0.165999-3.677978 0.531996-5.469968zM1023.776001 271.31165999999996a141.62317 141.62317 0 0 1-8.351951 40.94376 27.895837 27.895837 0 0 1-3.637978 8.995948 139.211184 139.211184 0 0 1-23.93386 36.785784l-118.593305 182.024934c-8.45595 12.977924-25.823849 16.647902-38.813773 8.189952-12.977924-8.45595-16.647902-25.833849-8.189952-38.813773l69.637592-106.883374c-1.197993 0.034-2.389986 0.089999-3.595979 0.09-42.793749 0-78.58354-26.643844-100.521411-48.181718-21.529874 21.645873-56.963666 48.181718-101.303406 48.181718-64.92162 0-119.653299-46.877725-132.707223-110.063355-12.577926 3.847977-26.667844 5.977965-41.759755 5.977965-15.093912 0-29.181829-2.131988-41.761755-5.977965-13.053924 63.18363-67.787603 110.063355-132.715223 110.063355-42.793749 0-78.58354-26.643844-100.521411-48.181718-21.527874 21.645873-56.963666 48.181718-101.303406 48.181718-1.203993 0-2.391986-0.058-3.587979-0.09l69.633592 106.883374c8.45595 12.981924 4.787972 30.357822-8.189952 38.813773-12.977924 8.45395-30.357822 4.787972-38.813773-8.189952l-118.575305-182.002934a139.197184 139.197184 0 0 1-23.967859-36.841784 27.919836 27.919836 0 0 1-3.611979-8.935948 141.517171 141.517171 0 0 1-8.363951-40.97576c-2.381986-44.633738 14.859913-76.373552 28.037835-96.369435 18.251893-27.695838 63.10363-69.291594 98.98942-98.98742 79.479534-65.759615 101.335406-65.759615 109.561358-65.759615 8.333951 0 30.465821 0 109.539359 65.645616 35.615791 29.569827 80.23153 71.137583 98.641422 99.133419 7.037959 10.705937 15.209911 24.803855 20.951877 42.375752 1.039994 2.273987 1.76999 4.711972 2.169987 7.261957 0.431997 1.587991 0.833995 3.211981 1.217993 4.849972 4.077976 4.683973 18.997889 13.005924 42.66575 13.005923 23.641861 0 38.555774-8.305951 42.65175-12.991924 0.395998-1.68599 0.807995-3.34998 1.249993-4.98197a27.899837 27.899837 0 0 1 2.109987-7.061959c5.749966-17.645897 13.957918-31.773814 21.019877-42.487751 18.251893-27.695838 63.10163-69.291594 98.98942-98.98742 79.481534-65.759615 101.335406-65.759615 109.563358-65.759615 8.333951 0 30.465821 0 109.539358 65.645616 35.613791 29.569827 80.23153 71.137583 98.641422 99.133419 13.165923 20.025883 30.397822 51.811696 28.009836 96.341435z m-625.650334-65.529616c-11.479933-17.457898-44.661738-50.645703-82.569516-82.577516-40.96176-34.511798-68.397599-51.873696-78.747539-56.22967-29.545827 11.853931-136.877198 101.157407-161.701052 138.831186-14.391916 21.835872-20.031883 40.533762-18.85989 62.507634 2.307986 43.139747 37.953778 78.235542 79.457535 78.235541 35.703791 0 68.129601-36.515786 77.557545-50.503704a28.049836 28.049836 0 0 1 22.929866-12.497926c9.183946-0.113999 17.969895 4.283975 23.331863 11.80193 10.145941 14.239917 43.935743 51.1997 78.009543 51.1997 41.505757 0 77.153548-35.097794 79.461535-78.239541 0.373998-6.941959 0.056-13.561921-1.001994-20.063883a53.499687 53.499687 0 0 1-3.217982-13.131923c-3.105982-9.511944-7.907954-19.069888-14.649914-29.331828z m550.766773 0c-11.479933-17.457898-44.661738-50.645703-82.569516-82.577516-40.96176-34.511798-68.397599-51.873696-78.743539-56.22967-29.549827 11.855931-136.881198 101.161407-161.705052 138.831186-6.733961 10.22194-11.527932 19.751884-14.629915 29.251829a53.507686 53.507686 0 0 1-3.235981 13.221922c-1.049994 6.483962-1.363992 13.093923-0.991994 20.031883 2.307986 43.139747 37.953778 78.235542 79.457535 78.235541 35.703791 0 68.127601-36.515786 77.555545-50.503704a28.055836 28.055836 0 0 1 22.931866-12.497926c9.249946-0.237999 17.973895 4.279975 23.331863 11.80193 10.141941 14.239917 43.933743 51.1997 78.005543 51.1997 41.505757 0 77.153548-35.097794 79.465535-78.239541 1.169993-21.915872-4.471974-40.619762-18.87189-62.525634z"  horiz-adv-x="1024" />

    
    <glyph glyph-name="amusement" unicode="&#58886;" d="M132-49.5l-55.6 55.6c-17.2 17.2-17.2 45.3 0 62.5L509.8 502c17.2 17.2 45.3 17.2 62.5 0l55.6-55.6c17.2-17.2 17.2-45.3 0-62.5L194.5-49.5c-17.2-17.1-45.3-17.1-62.5 0zM352.4 344.5l157.4 157.4c17.2 17.2 45.3 17.2 62.5 0l55.6-55.6c17.2-17.2 17.2-45.3 0-62.5L469.7 225.70000000000005 352.4 344.5zM322.3 116.29999999999995L241 197.70000000000005c-8.6 8.6-8.6 22.6 0 31.2 8.6 8.6 22.6 8.6 31.2 0l81.4-81.3c8.6-8.6 8.6-22.6 0-31.2-8.6-8.6-22.7-8.6-31.3-0.1zM787.7 394.9c0.3 1.1 1.4 2.2 2.4 2.4l167.8 45c1.1 0.3 1.3 1.2 0.5 1.9L835.7 567.1c-0.8 0.8-1.2 2.3-0.9 3.3l48.7 181.8c0.3 1.1-0.4 1.7-1.4 1.4L700.2 705c-1.1-0.3-2.6 0.1-3.3 0.9L574 828.7c-0.8 0.8-1.6 0.5-1.9-0.5l-45-167.8c-0.3-1.1-1.4-2.2-2.4-2.4l-167.8-45c-1.1-0.3-1.3-1.2-0.5-1.9l122.9-122.9c0.8-0.8 1.2-2.3 0.9-3.3L431.4 303c-0.3-1.1 0.4-1.7 1.4-1.4l181.8 48.7c1.1 0.3 2.6-0.1 3.3-0.9l122.9-122.9c0.8-0.8 1.6-0.5 1.9 0.5l45 167.9zM943.9 489.2l-85.7 85.7 35.1 131c5 18.8 1.4 36.1-10 47.5-11.4 11.4-28.7 15.1-47.5 10l-131.1-35.1L619 814.1c-13.8 13.8-30.6 19.3-46.1 15.1-15.6-4.2-27.4-17.3-32.4-36.1L509.1 676 392 644.6c-18.8-5-32-16.9-36.1-32.4-4.2-15.6 1.3-32.4 15.1-46.1l85.7-85.7-35.1-131.1c-5-18.8-1.4-36.1 10-47.5 8-8 19-12.2 31.4-12.2 5.2 0 10.6 0.7 16.1 2.2l131.1 35.1 85.7-85.7c10.7-10.7 23.3-16.4 35.8-16.4 3.5 0 7 0.5 10.4 1.4 15.6 4.2 27.4 17.3 32.4 36.1l31.4 117.1L923 410.8c18.8 5 31.9 16.8 36.1 32.4 4.1 15.4-1.4 32.3-15.2 46z m-97 232.9c3.1 0.8 5 0.8 5.7 1.1 0.1-1 0.1-2.9-0.7-6L823.2 610l-83.4 83.4 107.1 28.7z m-36.6-160l-39.6-147.8L623 374.70000000000005 504.5 493.2 544.1 641l147.8 39.6 118.4-118.5zM581.9 781.9c0.8 3.1 1.8 4.8 1.9 5.4 0.9-0.4 2.5-1.3 4.8-3.6l68.2-68.2-99.8-26.7 24.9 93.1zM401.3 596.4c-2.3 2.3-3.2 4-3.8 4.4 0.8 0.6 2.5 1.6 5.6 2.4l93.1 25-26.8-99.9-68.1 68.1z m66.6-263.2c-3.1-0.8-5-0.8-5.7-1.1-0.1 1-0.1 2.9 0.7 6l28.7 107.1 83.4-83.4-107.1-28.6z m265-59.9c-0.8-3.1-1.8-4.8-1.9-5.4-0.9 0.4-2.6 1.3-4.9 3.6L658 339.70000000000005l99.9 26.8-25-93.2z m178.8 178.8l-93.1-25 26.8 99.9 68.2-68.2c2.3-2.3 3.2-4 3.8-4.4-0.9-0.5-2.5-1.4-5.7-2.3z"  horiz-adv-x="1024" />

    
    <glyph glyph-name="life" unicode="&#58887;" d="M933.4 194.89999999999998V386.3c0 93.8-65.3 173.1-152.7 194.7-3.1 0.8-9.4 2.1-9.4 2.1l0.3-173.4c0-9.2-8.4-15.7-17.5-14.1-11.9 2.1-24 3.3-36.5 3.3H550.1V432c0 12.4 4.9 24.6 14.1 32.9 44 39.9 71.2 98.1 69.2 162.6-3.3 110-95.1 201.5-205 204.5-119.4 3.3-217.1-92.4-217.1-211 0-3 0.4-6 0.5-9h-0.5v-112.5h38.8c5.8-8.1 12.1-15.9 18.9-23.2 7.6-8.1 11.4-19.1 11.4-30.2V395C162.7 373.79999999999995 75.2 263 92.1 136.29999999999995c15.5-115.9 119.1-199.9 236-199.9h389.5c18.9 0 37.4 1.9 54.7 7.3 20.5 6.5 55.3 20.5 77 37.9 7.6 5.9 14.9 12.1 21.6 18.9 1.8 1.7 3.8 3.4 5.6 5.1 36.2 35.4 56.8 83.7 56.8 134.3v0.4c0.2 4.2 0.6 8.3 0.6 12.5v29.5c0.1 4.3-0.3 8.4-0.5 12.6zM440.1 644.5m-46.3 0a46.3 46.3 0 1 1 92.6 0 46.3 46.3 0 1 1-92.6 0ZM272.6 547.5l-122.6 0.3c-22 0-40.1-18-40.1-40s18-40.1 40-40.1l122.5-0.3c22 0 40.1 18 40.1 40 0.1 22-17.9 40-39.9 40.1z"  horiz-adv-x="1024" />

    
    <glyph glyph-name="demon" unicode="&#58888;" d="M958.2 384.5c0 74.1-39 138.8-97.5 175.4 1.2 7.9 1.9 15.9 1.9 24.1 0 91.6-74.3 165.9-165.9 165.9-23.5 0-45.8-4.9-66-13.7-30.1 30.9-72.2 50.2-118.7 50.2s-88.6-19.3-118.7-50.2c-20.2 8.8-42.5 13.7-66 13.7-91.6 0-165.9-74.3-165.9-165.9 0-8.2 0.8-16.2 1.9-24.1-58.5-36.5-97.5-101.3-97.5-175.4 0-67.4 32.4-127.1 82.2-164.8 0-0.5-0.1-1-0.1-1.6 0-130.6 105.9-236.5 236.5-236.5 47.4 0 91.5 14.1 128.5 38.1 37-24 81.1-38.1 128.5-38.1 130.6 0 236.5 105.9 236.5 236.5 0 1-0.1 1.9-0.1 2.9 48.8 37.8 80.4 96.9 80.4 163.5zM696.7 418.1c-46.6 0-88.6 19.3-118.7 50.2-20.2-8.8-42.5-13.7-66-13.7s-45.8 4.9-66 13.7c-30.1-30.9-72.2-50.2-118.7-50.2-4.1 0-8.2 0.3-12.2 0.6v-183.9c0-100.2 82-182.2 182.2-182.2H534c100.2 0 182.2 82 182.2 182.2V419.4c-6.4-0.8-12.8-1.3-19.5-1.3zM509.5 229.5m-36.9 0a36.9 36.9 0 1 1 73.8 0 36.9 36.9 0 1 1-73.8 0ZM647.4 336H624v23.4c0 7.1-5.8 12.9-12.9 12.9h-5.4c-7.1 0-12.9-5.8-12.9-12.9V336h-23.4c-7.1 0-12.9-5.8-12.9-12.9v-5.4c0-7.1 5.8-12.9 12.9-12.9h23.4v-23.4c0-7.1 5.8-12.9 12.9-12.9h5.4c7.1 0 12.9 5.8 12.9 12.9v23.4h23.4c7.1 0 12.9 5.8 12.9 12.9v5.4c0.1 7.1-5.8 12.9-12.9 12.9zM449.7 336h-23.4v23.4c0 7.1-5.8 12.9-12.9 12.9H408c-7.1 0-12.9-5.8-12.9-12.9V336h-23.4c-7.1 0-12.9-5.8-12.9-12.9v-5.4c0-7.1 5.8-12.9 12.9-12.9h23.4v-23.4c0-7.1 5.8-12.9 12.9-12.9h5.4c7.1 0 12.9 5.8 12.9 12.9v23.4h23.4c7.1 0 12.9 5.8 12.9 12.9v5.4c0 7.1-5.8 12.9-12.9 12.9zM608.3 229.89999999999998c-7.5 0-13.7-6.1-13.7-13.7 0-37.5-38.2-67.9-85.1-67.9-46.9 0-85.1 30.5-85.1 67.9 0 7.5-6.1 13.7-13.7 13.7s-13.7-6.1-13.7-13.7c0-52.5 50.5-95.3 112.5-95.3S622 163.60000000000002 622 216.20000000000005c0 7.6-6.1 13.7-13.7 13.7z"  horiz-adv-x="1024" />

    
    <glyph glyph-name="advertisement" unicode="&#58889;" d="M584.3 805.8c36.4 36.4 147-15.3 247.1-115.5s151.8-210.8 115.5-247.1c-2-2-4.3-3.8-6.8-5.3-41.9-25.1-713.9-420.5-713.9-420.5s-25 5.6-54 34.6c-31.2 31.2-38.4 54.6-38.4 54.6S558.1 761.9 578.5 798.1c1.6 2.8 3.5 5.4 5.8 7.7zM133.7 106.60000000000002l0.6 0.9c-5.7-3.8-39.6-22.3-57.8-32.3-7.8-4.3-12.1-12.8-10.8-21.6 2.2-15.3 10-39.9 35.1-65 25.7-25.7 50.9-34.6 66.2-37.6 8.6-1.7 17.3 1.9 22 9.4 12 19 35.8 56.3 37.1 57 0 0-25 5.6-54 34.6-31.2 31.2-38.4 54.6-38.4 54.6zM584.3 805.8c36.4 36.4 147-15.3 247.1-115.5s151.8-210.8 115.5-247.1c-2-2-4.3-3.8-6.8-5.3-41.9-25.1-113.4-66.9-113.4-66.9s-71.2 4.7-193 126.6C519 612.2 508.9 688.1 508.9 688.1s44.6 68.7 69.6 110c1.7 2.8 3.5 5.4 5.8 7.7zM699.719728 558.681385a93.09999999999998 256.4 45.001 1 1 131.660985 131.66558 93.09999999999998 256.4 45.001 1 1-131.660985-131.66558Z"  horiz-adv-x="1024" />

    
    <glyph glyph-name="drama-series" unicode="&#58890;" d="M596.6 540l-13.2 8.1 166.5 229c11.1 15.3 7.7 37-7.6 48.1-15.3 11.1-37 7.7-48.1-7.6L524.6 584.4 255.6 750c-16.1 9.9-37.4 4.9-47.4-11.3-9.9-16.1-4.9-37.4 11.3-47.4L484 528.5l-25.3-34.8c-11.1-15.3-7.7-37 7.6-48.1 15.3-11.1 37-7.7 48.1 7.6l28.4 39.1 17.7-10.9c16.1-9.9 37.4-4.9 47.4 11.3 9.9 16.1 4.9 37.4-11.3 47.3zM790.6-4.399999999999977m-59.2 0a59.2 59.2 0 1 1 118.4 0 59.2 59.2 0 1 1-118.4 0ZM233.4-4.399999999999977m-59.2 0a59.2 59.2 0 1 1 118.4 0 59.2 59.2 0 1 1-118.4 0ZM851.9-15.899999999999977H172.1c-39.3 0-71.4 32.1-71.4 71.4V518.6c0 39.3 32.1 71.4 71.4 71.4h679.7c39.3 0 71.4-32.1 71.4-71.4v-463.1c0.1-39.3-32-71.4-71.3-71.4zM520.8 300.9m-142.3 0a142.3 142.3 0 1 1 284.6 0 142.3 142.3 0 1 1-284.6 0ZM472.7 384.9c0 1 0.7 1.5 1.7 1L619.8 302c0.9-0.5 0.9-1.4 0-1.9l-145.4-83.9c-0.9-0.5-1.7-0.1-1.7 1V384.9z"  horiz-adv-x="1024" />

    
    <glyph glyph-name="China-animation" unicode="&#58896;" d="M893.3 588.1c-47.2 47.2-108.3 77.7-170.1 42.1 9 49 2.2 110-54.2 167.6 0 0-88.3-112.1-15.9-228.8-13-13.8-25.6-27.8-38.5-40.7-28.1-28.1 15.5-71.8 43.7-43.7 24.1 24.1 47.6 48.9 72.3 72.3 43.1 40.8 80.8 25.6 119-12.6 28.1-28 71.8 15.7 43.7 43.8zM715.7 564.2c-78.9 78.9-206.8 78.9-285.7 0-19.2-19.2-33.6-41.3-43.5-64.9-67.8 0.1-135.6-25.8-187.3-77.5-103.4-103.3-103.4-270.8 0-374.2 103.3-103.3 270.9-103.3 374.2 0 51.7 51.7 77.5 119.5 77.5 187.3 23.6 9.9 45.7 24.3 64.9 43.5 78.8 79 78.8 206.9-0.1 285.8zM514.6 81.39999999999998c-79.3-76.4-205.6-74.1-282 5.3s-74.1 205.6 5.3 282c0 0-47.4-125.6 46.3-222.9 106.2-110.3 230.4-64.4 230.4-64.4z m0 0"  horiz-adv-x="1024" />

    
    <glyph glyph-name="tv-show" unicode="&#59092;" d="M253.2 688.1c-46.2-53.3-66.4-123.8-55.5-193.8l27.4-141.9c63.1-24.4 66.9-98.2 75-167.3 47.4 10.4 146.9 15.6 211.8 15.6 65 0 171-5.3 218.4-15.6 8.5 68.9 4.8 142 66.7 166.6L826.2 495c10.8 69.4-9.5 139.9-55.5 193.2-46.1 53.3-113.1 83.9-183.9 83.9H437.1c-70.7 0-137.8-30.6-183.9-84zM513.3 503.3l-38.8 38.8c-8.4 8.4-22.2 8.4-30.6 0-8.5-8.5-8.5-22.2 0-30.6l28-27.9-28-28c-8.5-8.4-8.5-22.2 0-30.6 4.2-4.2 9.8-6.3 15.3-6.3s11.1 2.1 15.3 6.3l38.8 38.8 38.8-38.8c4.2-4.2 9.8-6.3 15.3-6.3s11.1 2.1 15.3 6.3c8.5 8.4 8.5 22.2 0 30.6l-28 28 28 27.9c8.5 8.4 8.5 22.2 0 30.6-4.2 4.2-9.8 6.3-15.3 6.3s-11.1-2.1-15.3-6.3l-38.8-38.8zM866.1 425C783.9 425 717 360.9 717 282.1v-77.2l-410-1.8v77.2c0 75.5-58.8 136.6-133.9 143.9l-15.2 0.8c-51.4 0-93.2-40.1-93.2-89.3 0-5 0.5-10 1.4-14.8 4.4-25.6 20.2-48.1 43.5-61.6l9.7-4.8 2.7-1.3c10.9-5.2 17.2-14.3 17.2-24.6v-71.4c0-54.9 37.2-101.5 88.6-118.2 5-24.5 28.2-42.9 56-42.9 25.2 0 46.4 15.2 53.9 36.2h348.8c7.6-21 28.7-36.2 53.9-36.2 27.9 0 51 18.6 56 43.1 51.3 16.8 88.3 63.4 88.3 118.1v71.4l1.2 7.9c1.7 5.1 4.7 9.5 8.9 12.8l1.7 1 5.3 3c30.5 12.2 51.6 38.5 56.4 69.1l1 13.3c0.1 49-41.7 89.2-93.1 89.2z"  horiz-adv-x="1024" />

    
    <glyph glyph-name="fashion" unicode="&#59095;" d="M709.6 734.2c16.2-5.5 29.6-18.9 33-37.6 0-0.3 0.1-0.5 0.1-0.8 5.4-31.4-0.6-61.2-14.4-85.9h0.1s-21-33.2-26.7-44.3c-18.7-36.5-27.9-77.2-27.9-118.2v-44.8H350.2v44.8c0 41-9.2 81.7-27.9 118.2-5.7 11.1-26.7 44.3-26.7 44.3h0.1c-13.8 24.8-19.8 54.5-14.4 85.9 0 0.3 0.1 0.5 0.1 0.8 3.7 20.6 19.6 34.8 38.1 39l0.2 61.2c0 19.2 13.4 34.9 29.7 34.9 16.3 0 29.7-15.7 29.7-34.9l-0.2-81.6c39.2-22.7 84.6-35.7 133.1-35.7 50.6 0 97.9 14.2 138.2 38.7l0.3 78.7c0 19.2 13.4 34.9 29.7 34.9 16.4 0 29.7-15.7 29.7-34.9l-0.3-62.7zM673.8 420.9H350.2L172 97.79999999999995c-9.7-17.5-4.9-39.5 11.1-51.5 91.4-69.1 205.1-110.1 328.3-110.1 123.8 0 238 41.3 329.6 111 15.9 12.1 20.7 34 11 51.5L673.8 420.9zM400.1 367.20000000000005c-5.5 2.7-12.2 0.5-14.9-5l-137.1-277c-2.7-5.5-0.5-12.2 5-14.9 1.6-0.8 3.3-1.2 4.9-1.2 4.1 0 8 2.3 10 6.2l137.1 277c2.8 5.5 0.5 12.2-5 14.9zM450.2 249.60000000000002c-5.9 1.4-12-2.3-13.4-8.3l-44.6-188.7c-1.4-6 2.3-12 8.3-13.4 0.9-0.2 1.7-0.3 2.6-0.3 5 0 9.6 3.4 10.8 8.6l44.6 188.7c1.4 5.9-2.3 11.9-8.3 13.4zM775.9 85.20000000000005l-137.1 277c-2.7 5.5-9.4 7.8-14.9 5-5.5-2.7-7.8-9.4-5-14.9l137.1-277c1.9-3.9 5.9-6.2 10-6.2 1.7 0 3.3 0.4 4.9 1.2 5.5 2.7 7.7 9.4 5 14.9zM587.2 241.29999999999995c-1.4 6-7.4 9.7-13.4 8.3-6-1.4-9.7-7.4-8.3-13.4l44.6-188.7c1.2-5.1 5.8-8.6 10.8-8.6 0.8 0 1.7 0.1 2.6 0.3 6 1.4 9.7 7.4 8.3 13.4l-44.6 188.7z"  horiz-adv-x="1024" />

    
    <glyph glyph-name="game" unicode="&#59097;" d="M843-31.100000000000023H181.9c-46.1 0-83.9 37.7-83.9 83.9V713.9c0 46.1 37.7 83.9 83.9 83.9H843c46.1 0 83.9-37.7 83.9-83.9v-661.2c0-46.1-37.7-83.8-83.9-83.8zM266.8 606.3h163.7v-163.7H266.8zM594.2 606.3h163.7v-163.7H594.2zM430.5 442.6v-90.9h-77v-245.5h71.1V188h175.6v-81.8h71.1V351.70000000000005h-77.1v90.9z"  horiz-adv-x="1024" />

    


  </font>
</defs>
</svg>
